<svg xmlns="http://www.w3.org/2000/svg" viewBox="0 0 100 100">
  <g transform="translate(50,50)">
    <line x1="14" y1="0" x2="32" y2="0" stroke="#1a1a1a" stroke-width="3"/>
    <line x1="13.6" y1="2.4" x2="31.2" y2="5.5" stroke="#1a1a1a" stroke-width="3"/>
    <line x1="12.5" y1="4.7" x2="28.7" y2="10.8" stroke="#1a1a1a" stroke-width="3"/>
    <line x1="10.8" y1="6.8" x2="24.8" y2="15.6" stroke="#1a1a1a" stroke-width="3"/>
    <line x1="8.5" y1="8.5" x2="19.8" y2="19.8" stroke="#1a1a1a" stroke-width="3"/>
    <line x1="5.8" y1="9.8" x2="14" y2="23.2" stroke="#1a1a1a" stroke-width="3"/>
    <line x1="2.9" y1="10.6" x2="7.5" y2="25.6" stroke="#1a1a1a" stroke-width="3"/>
    <line x1="0" y1="11" x2="0" y2="27" stroke="#1a1a1a" stroke-width="3"/>
    <line x1="-2.9" y1="10.6" x2="-7.5" y2="25.6" stroke="#1a1a1a" stroke-width="3"/>
    <line x1="-5.8" y1="9.8" x2="-14" y2="23.2" stroke="#1a1a1a" stroke-width="3"/>
    <line x1="-8.5" y1="8.5" x2="-19.8" y2="19.8" stroke="#1a1a1a" stroke-width="3"/>
    <line x1="-10.8" y1="6.8" x2="-24.8" y2="15.6" stroke="#1a1a1a" stroke-width="3"/>
    <line x1="-12.5" y1="4.7" x2="-28.7" y2="10.8" stroke="#1a1a1a" stroke-width="3"/>
    <line x1="-13.6" y1="2.4" x2="-31.2" y2="5.5" stroke="#1a1a1a" stroke-width="3"/>
    <line x1="-14" y1="0" x2="-32" y2="0" stroke="#1a1a1a" stroke-width="3"/>
    <line x1="-13.6" y1="-2.4" x2="-31.2" y2="-5.5" stroke="#1a1a1a" stroke-width="3"/>
    <line x1="-12.5" y1="-4.7" x2="-28.7" y2="-10.8" stroke="#1a1a1a" stroke-width="3"/>
    <line x1="-10.8" y1="-6.8" x2="-24.8" y2="-15.6" stroke="#1a1a1a" stroke-width="3"/>
    <line x1="-8.5" y1="-8.5" x2="-19.8" y2="-19.8" stroke="#1a1a1a" stroke-width="3"/>
    <line x1="-5.8" y1="-9.8" x2="-14" y2="-23.2" stroke="#1a1a1a" stroke-width="3"/>
    <line x1="-2.9" y1="-10.6" x2="-7.5" y2="-25.6" stroke="#1a1a1a" stroke-width="3"/>
    <line x1="0" y1="-11" x2="0" y2="-27" stroke="#1a1a1a" stroke-width="3"/>
    <line x1="2.9" y1="-10.6" x2="7.5" y2="-25.6" stroke="#1a1a1a" stroke-width="3"/>
    <line x1="5.8" y1="-9.8" x2="14" y2="-23.2" stroke="#1a1a1a" stroke-width="3"/>
    <line x1="8.5" y1="-8.5" x2="19.8" y2="-19.8" stroke="#1a1a1a" stroke-width="3"/>
    <line x1="10.8" y1="-6.8" x2="24.8" y2="-15.6" stroke="#1a1a1a" stroke-width="3"/>
    <line x1="12.5" y1="-4.7" x2="28.7" y2="-10.8" stroke="#1a1a1a" stroke-width="3"/>
    <line x1="13.6" y1="-2.4" x2="31.2" y2="-5.5" stroke="#1a1a1a" stroke-width="3"/>
  </g>
</svg>
